<svg width="50" height="50" viewBox="0 0 50 50" fill="none" xmlns="http://www.w3.org/2000/svg">
<rect width="50" height="50" rx="4" fill="white"/>
<path d="M27.808 18.2126C27.808 16.1306 27.892 14.9046 27.202 13.8526C26.59 12.9866 25.536 12.4666 24.064 12.5486C22.468 12.6366 20.754 13.6826 20.318 15.6006C20.232 16.0406 19.976 16.4726 19.444 16.5666L14.574 15.9466C14.226 15.8666 13.696 15.6006 13.87 14.9046C14.916 9.40256 19.618 7.48456 24.066 7.22656H25.11C27.55 7.22656 30.686 7.92456 32.692 9.75456C35.126 12.0266 34.866 15.0786 34.866 18.3946V26.2486C34.866 28.6046 35.822 29.6486 36.782 30.8766C37.042 31.3146 37.132 31.8306 36.694 32.1866C35.434 33.3099 34.1558 34.4127 32.86 35.4946C32.51 35.7606 31.882 35.7886 31.64 35.5846C30.1 34.2946 29.724 33.5786 28.77 32.2686C27.11 34.0106 25.716 34.9726 24.058 35.4946C22.8922 35.7913 21.693 35.9365 20.49 35.9266C16.31 35.9266 13 33.3206 13 28.1666C13 24.0686 15.18 21.2826 18.4 19.9646C21.62 18.6446 26.3 18.2246 27.808 18.2166M26.854 28.6006C27.894 26.8566 27.808 25.4286 27.808 22.2306C26.504 22.2306 25.196 22.3206 24.066 22.5866C21.976 23.1926 20.316 24.5066 20.316 27.2966C20.316 29.4766 21.452 30.9606 23.368 30.9606C23.632 30.9606 23.864 30.9306 24.064 30.8706C25.404 30.4986 26.24 29.8266 26.854 28.6006Z" fill="#232F3E"/>
<path d="M44.9946 37.6866C44.9946 39.1406 44.1846 41.9406 42.3646 43.4786C42.0006 43.7586 41.6366 43.6006 41.7966 43.1926C42.3266 41.8966 43.5386 38.8986 42.9706 38.2086C42.5686 37.6846 40.9086 37.7246 39.4926 37.8446C38.8466 37.9266 38.2786 37.9646 37.8386 38.0546C37.4306 38.0866 37.3486 37.7286 37.7566 37.4486C38.2881 37.0737 38.8753 36.7849 39.4966 36.5926C41.7966 35.9046 44.4546 36.3186 44.8366 36.7586C44.9086 36.8426 44.9946 37.0806 44.9946 37.6866ZM41.1506 40.2726C40.6247 40.6781 40.0707 41.0457 39.4926 41.3726C35.2486 43.9226 29.7506 45.2586 24.9766 45.2586C17.2906 45.2586 10.4166 42.4246 5.20062 37.6826C4.75262 37.3186 5.12262 36.7906 5.64662 37.0766C11.2666 40.3566 18.2226 42.3406 25.4226 42.3406C29.9546 42.3406 34.8386 41.4926 39.4926 39.6686C39.8186 39.5466 40.1826 39.3806 40.5006 39.2646C41.2346 38.9346 41.8806 39.7486 41.1506 40.2726Z" fill="#FF9900"/>
<rect x="21" y="1" width="4" height="8" fill="#232F3E"/>
<rect x="21" y="32" width="4" height="8" fill="#232F3E"/>
<rect x="26" y="1" width="4" height="8" fill="#232F3E"/>
<rect x="26" y="32" width="4" height="8" fill="#232F3E"/>
</svg>
