<svg width="26" height="26" viewBox="0 0 26 26" fill="none" xmlns="http://www.w3.org/2000/svg">
<path d="M0.251434 13.0057C0.251434 11.3308 0.581334 9.67228 1.2223 8.12486C1.86326 6.57744 2.80273 5.17142 3.98708 3.98707C5.17142 2.80273 6.57745 1.86325 8.12487 1.22229C9.67229 0.581328 11.3308 0.251429 13.0057 0.251429C14.6806 0.251429 16.3392 0.581328 17.8866 1.22229C19.434 1.86325 20.84 2.80273 22.0244 3.98707C23.2087 5.17142 24.1482 6.57744 24.7891 8.12486C25.4301 9.67228 25.76 11.3308 25.76 13.0057C25.76 16.3884 24.4163 19.6325 22.0244 22.0244C19.6325 24.4162 16.3884 25.76 13.0057 25.76C9.62307 25.76 6.37897 24.4162 3.98708 22.0244C1.59519 19.6325 0.251434 16.3884 0.251434 13.0057Z" fill="#0E5BFF"/>
<path fill-rule="evenodd" clip-rule="evenodd" d="M13.0057 22.04C15.4018 22.04 17.6997 21.0882 19.3939 19.3939C21.0882 17.6997 22.04 15.4018 22.04 13.0057C22.04 10.6097 21.0882 8.31177 19.3939 6.61751C17.6997 4.92325 15.4018 3.97143 13.0057 3.97143C10.6097 3.97143 8.31177 4.92325 6.61752 6.61751C4.92326 8.31177 3.97144 10.6097 3.97144 13.0057C3.97144 15.4018 4.92326 17.6997 6.61752 19.3939C8.31177 21.0882 10.6097 22.04 13.0057 22.04ZM11.9429 10.3486C11.0628 10.3486 10.3486 11.0628 10.3486 11.9429V14.0686C10.3486 14.9486 11.0628 15.6629 11.9429 15.6629H14.0686C14.9486 15.6629 15.6629 14.9486 15.6629 14.0686V11.9429C15.6629 11.0628 14.9486 10.3486 14.0686 10.3486H11.9429Z" fill="white"/>
</svg>
