<svg width="13" height="13" viewBox="0 0 13 13" fill="none" xmlns="http://www.w3.org/2000/svg">
<path d="M5.95834 4.87499H7.04168V3.79166H5.95834M6.50001 10.8333C4.11126 10.8333 2.16668 8.88874 2.16668 6.49999C2.16668 4.11124 4.11126 2.16666 6.50001 2.16666C8.88876 2.16666 10.8333 4.11124 10.8333 6.49999C10.8333 8.88874 8.88876 10.8333 6.50001 10.8333ZM6.50001 1.08333C5.78868 1.08333 5.08432 1.22343 4.42714 1.49565C3.76996 1.76786 3.17283 2.16685 2.66985 2.66983C1.65403 3.68566 1.08334 5.06341 1.08334 6.49999C1.08334 7.93658 1.65403 9.31433 2.66985 10.3302C3.17283 10.8331 3.76996 11.2321 4.42714 11.5043C5.08432 11.7766 5.78868 11.9167 6.50001 11.9167C7.9366 11.9167 9.31435 11.346 10.3302 10.3302C11.346 9.31433 11.9167 7.93658 11.9167 6.49999C11.9167 5.78867 11.7766 5.08431 11.5044 4.42713C11.2321 3.76995 10.8332 3.17282 10.3302 2.66983C9.82719 2.16685 9.23006 1.76786 8.57288 1.49565C7.9157 1.22343 7.21134 1.08333 6.50001 1.08333ZM5.95834 9.20833H7.04168V5.95833H5.95834V9.20833Z" fill="black" fill-opacity="0.5"/>
</svg>
