<svg width="26" height="25" viewBox="0 0 26 25" fill="none" xmlns="http://www.w3.org/2000/svg">
<path d="M24.0892 23.4495L18.5949 21.8467L14.4512 24.2729H11.5602L7.41367 21.8467L1.92225 23.4481L0.251434 17.9255L1.92225 11.7935L0.251434 6.60818L1.92225 0.182854L10.5045 5.20521H15.507L24.0892 0.182854L25.76 6.60818L24.0892 11.7921L25.76 17.9255L24.0892 23.4495Z" fill="#FF5C16"/>
<path d="M1.92365 0.182854L10.5044 5.20946L10.1643 8.65879L1.92365 0.182854ZM7.41507 17.9255L11.1918 20.7456L7.41507 21.8467V17.9255ZM10.8899 13.2688L10.1643 8.66162L5.51894 11.7935H5.5161V11.7949L5.53027 15.0189L7.41507 13.2688H10.8899ZM24.0878 0.182854L15.5055 5.20946L15.8457 8.65879L24.0878 0.182854ZM18.5963 17.9255L14.8196 20.7456L18.5963 21.8467V17.9255ZM20.4939 11.7949L15.8471 8.66304L15.1215 13.2688H18.5949L20.4797 15.0203L20.4939 11.7949Z" fill="#FF5C16"/>
<path d="M7.41367 21.8467L1.92225 23.4481L0.251434 17.9283H7.41367V21.8467ZM10.8885 13.2673L11.9372 19.9279L10.4832 16.2235L5.52746 15.0189L7.41226 13.2673H10.8885ZM18.5978 21.8467L24.0892 23.4481L25.76 17.9283H18.5963L18.5978 21.8467ZM15.1229 13.2673L14.0742 19.9279L15.5282 16.2235L20.484 15.0189L18.5978 13.2673H15.1229Z" fill="#E34807"/>
<path d="M0.251434 17.9255L1.92225 11.7921H5.5147L5.52887 15.0175L10.4832 16.2221L11.9372 19.9251L11.1904 20.7413L7.41367 17.9226H0.251434V17.9255ZM25.76 17.9255L24.0892 11.7921H20.4967L20.4826 15.0175L15.5282 16.2221L14.0742 19.9251L14.8211 20.7413L18.5978 17.9226H25.76V17.9255ZM15.507 5.20521H10.5045L10.1643 8.65595L11.9372 19.9222H14.0742L15.8485 8.65595L15.507 5.20521Z" fill="#FF8D5D"/>
<path d="M1.92225 0.182854L0.251434 6.60818L1.92225 11.7921H5.5147L10.1629 8.65879L1.92225 0.182854ZM9.84974 14.6051H8.22286L7.33573 15.4554L10.4846 16.2207L9.84974 14.6051ZM24.0892 0.182854L25.76 6.60818L24.0892 11.7921H20.4967L15.8485 8.65879L24.0892 0.182854ZM16.1631 14.6051H17.7928L18.68 15.4554L15.5282 16.2221L16.1631 14.6051ZM14.4498 22.0749L14.8211 20.7428L14.0742 19.9279H11.9358L11.1889 20.7428L11.5602 22.0749" fill="#661800"/>
<path d="M14.4512 22.0749V24.2743H11.5602V22.0749H14.4512Z" fill="#C0C4CD"/>
<path d="M7.41507 21.8439L11.563 24.2729V22.0735L11.1918 20.7413L7.41507 21.8439ZM18.5963 21.8439L14.4512 24.2743V22.0749L14.8225 20.7428L18.5963 21.8439Z" fill="#E7EBF6"/>
</svg>
