<svg width="26" height="22" viewBox="0 0 26 22" fill="none" xmlns="http://www.w3.org/2000/svg">
<path d="M3.26995 21.2091C6.52513 21.2091 8.97111 18.4882 10.4308 16.3398C10.2567 16.7895 10.1632 17.2663 10.1544 17.7485C10.1544 19.0026 10.9055 19.8969 12.385 19.8969C14.4158 19.8969 16.5868 18.185 17.7106 16.3398C17.6386 16.581 17.5991 16.8308 17.593 17.0824C17.593 17.9568 18.106 18.5081 19.1519 18.5081C22.4453 18.5081 25.76 12.8976 25.76 7.99144C25.76 4.16799 23.7477 0.802277 18.697 0.802277C9.81998 0.802277 0.251434 11.2239 0.251434 17.9568C0.251434 20.6012 1.73093 21.2091 3.26995 21.2091ZM15.6402 7.57339C15.6402 6.62248 16.1929 5.95643 17.0006 5.95643C17.79 5.95643 18.3427 6.62248 18.3427 7.57197C18.3427 8.52429 17.79 9.20877 17.0006 9.20877C16.1929 9.20877 15.6402 8.52429 15.6402 7.57339ZM19.8619 7.57339C19.8619 6.62248 20.4145 5.95643 21.2223 5.95643C22.0117 5.95643 22.5643 6.62248 22.5643 7.57197C22.5643 8.52429 22.0117 9.20877 21.2223 9.20877C20.4145 9.20877 19.8619 8.52429 19.8619 7.57339Z" fill="#AB9FF2"/>
</svg>
