<svg width="14" height="14" viewBox="0 0 14 14" fill="none" xmlns="http://www.w3.org/2000/svg">
<g clip-path="url(#clip0_17_126)">
<path d="M7.00001 12.25C7.68945 12.25 8.37214 12.1142 9.0091 11.8504C9.64606 11.5865 10.2248 11.1998 10.7123 10.7123C11.1998 10.2248 11.5865 9.64605 11.8504 9.00909C12.1142 8.37213 12.25 7.68944 12.25 7C12.25 6.31056 12.1142 5.62787 11.8504 4.99091C11.5865 4.35396 11.1998 3.7752 10.7123 3.28769C10.2248 2.80018 9.64606 2.41347 9.0091 2.14963C8.37214 1.8858 7.68945 1.75 7.00001 1.75C5.60762 1.75 4.27227 2.30313 3.2877 3.28769C2.30313 4.27226 1.75001 5.60762 1.75001 7C1.75001 8.39239 2.30313 9.72775 3.2877 10.7123C4.27227 11.6969 5.60762 12.25 7.00001 12.25ZM13.4167 7C13.4167 10.5438 10.5438 13.4167 7.00001 13.4167C3.45626 13.4167 0.583344 10.5438 0.583344 7C0.583344 3.45625 3.45626 0.583336 7.00001 0.583336C10.5438 0.583336 13.4167 3.45625 13.4167 7ZM8.75001 9.57484L6.41668 7.2415V3.20834H7.58334V6.7585L9.57484 8.75L8.75001 9.57484Z" fill="black" fill-opacity="0.5"/>
</g>
<defs>
<clipPath id="clip0_17_126">
<rect width="14" height="14" fill="white"/>
</clipPath>
</defs>
</svg>
