<svg width="40" height="45" viewBox="0 0 40 45" fill="none" xmlns="http://www.w3.org/2000/svg">
<path d="M22.808 17.2126C22.808 15.1306 22.892 13.9046 22.202 12.8526C21.59 11.9866 20.536 11.4666 19.064 11.5486C17.468 11.6366 15.754 12.6826 15.318 14.6006C15.232 15.0406 14.976 15.4726 14.444 15.5666L9.574 14.9466C9.226 14.8666 8.696 14.6006 8.87 13.9046C9.916 8.40256 14.618 6.48456 19.066 6.22656H20.11C22.55 6.22656 25.686 6.92456 27.692 8.75456C30.126 11.0266 29.866 14.0786 29.866 17.3946V25.2486C29.866 27.6046 30.822 28.6486 31.782 29.8766C32.042 30.3146 32.132 30.8306 31.694 31.1866C30.434 32.3099 29.1558 33.4127 27.86 34.4946C27.51 34.7606 26.882 34.7886 26.64 34.5846C25.1 33.2946 24.724 32.5786 23.77 31.2686C22.11 33.0106 20.716 33.9726 19.058 34.4946C17.8922 34.7913 16.693 34.9365 15.49 34.9266C11.31 34.9266 8 32.3206 8 27.1666C8 23.0686 10.18 20.2826 13.4 18.9646C16.62 17.6446 21.3 17.2246 22.808 17.2166M21.854 27.6006C22.894 25.8566 22.808 24.4286 22.808 21.2306C21.504 21.2306 20.196 21.3206 19.066 21.5866C16.976 22.1926 15.316 23.5066 15.316 26.2966C15.316 28.4766 16.452 29.9606 18.368 29.9606C18.632 29.9606 18.864 29.9306 19.064 29.8706C20.404 29.4986 21.24 28.8266 21.854 27.6006Z" fill="white"/>
<path d="M39.9946 36.6866C39.9946 38.1406 39.1846 40.9406 37.3646 42.4786C37.0006 42.7586 36.6366 42.6006 36.7966 42.1926C37.3266 40.8966 38.5386 37.8986 37.9706 37.2086C37.5686 36.6846 35.9086 36.7246 34.4926 36.8446C33.8466 36.9266 33.2786 36.9646 32.8386 37.0546C32.4306 37.0866 32.3486 36.7286 32.7566 36.4486C33.2881 36.0737 33.8753 35.7849 34.4966 35.5926C36.7966 34.9046 39.4546 35.3186 39.8366 35.7586C39.9086 35.8426 39.9946 36.0806 39.9946 36.6866ZM36.1506 39.2726C35.6247 39.6781 35.0707 40.0457 34.4926 40.3726C30.2486 42.9226 24.7506 44.2586 19.9766 44.2586C12.2906 44.2586 5.41662 41.4246 0.200618 36.6826C-0.247382 36.3186 0.122618 35.7906 0.646618 36.0766C6.26662 39.3566 13.2226 41.3406 20.4226 41.3406C24.9546 41.3406 29.8386 40.4926 34.4926 38.6686C34.8186 38.5466 35.1826 38.3806 35.5006 38.2646C36.2346 37.9346 36.8806 38.7486 36.1506 39.2726Z" fill="#FF9900"/>
<rect x="16" width="4" height="8" fill="white"/>
<rect x="16" y="31" width="4" height="8" fill="white"/>
<rect x="21" width="4" height="8" fill="white"/>
<rect x="21" y="31" width="4" height="8" fill="white"/>
</svg>
