<svg width="9" height="9" viewBox="0 0 9 9" fill="none" xmlns="http://www.w3.org/2000/svg">
<g clip-path="url(#clip0_25_358)">
<path fill-rule="evenodd" clip-rule="evenodd" d="M1.875 1.5C1.77554 1.5 1.68016 1.53951 1.60984 1.60984C1.53951 1.68016 1.5 1.77554 1.5 1.875V7.125C1.5 7.22446 1.53951 7.31984 1.60984 7.39017C1.68016 7.46049 1.77554 7.5 1.875 7.5H7.125C7.22446 7.5 7.31984 7.46049 7.39017 7.39017C7.46049 7.31984 7.5 7.22446 7.5 7.125V5.15138C7.5 5.05192 7.53951 4.95654 7.60983 4.88621C7.68016 4.81588 7.77554 4.77638 7.875 4.77638C7.97446 4.77638 8.06984 4.81588 8.14017 4.88621C8.21049 4.95654 8.25 5.05192 8.25 5.15138V7.125C8.25 7.42337 8.13147 7.70952 7.9205 7.9205C7.70952 8.13147 7.42337 8.25 7.125 8.25H1.875C1.57663 8.25 1.29048 8.13147 1.0795 7.9205C0.868526 7.70952 0.75 7.42337 0.75 7.125V1.875C0.75 1.57663 0.868526 1.29048 1.0795 1.0795C1.29048 0.868526 1.57663 0.75 1.875 0.75H3.75638C3.85583 0.75 3.95121 0.789509 4.02154 0.859835C4.09187 0.930161 4.13138 1.02554 4.13138 1.125C4.13138 1.22446 4.09187 1.31984 4.02154 1.39017C3.95121 1.46049 3.85583 1.5 3.75638 1.5H1.875Z" fill="#404040"/>
<path fill-rule="evenodd" clip-rule="evenodd" d="M8.02917 0.964501C8.09668 1.0322 8.13459 1.1239 8.13459 1.2195C8.13459 1.3151 8.09668 1.40681 8.02917 1.4745L4.73967 4.76925C4.70624 4.8027 4.66654 4.82923 4.62285 4.84734C4.57916 4.86544 4.53233 4.87476 4.48504 4.87476C4.43775 4.87476 4.39092 4.86544 4.34723 4.84734C4.30354 4.82923 4.26385 4.8027 4.23042 4.76925C4.16291 4.70156 4.125 4.60985 4.125 4.51425C4.125 4.41865 4.16291 4.32695 4.23042 4.25925L7.52029 0.964501C7.5878 0.897062 7.67931 0.85918 7.77473 0.85918C7.87015 0.85918 7.96166 0.897062 8.02917 0.964501Z" fill="#404040"/>
<path fill-rule="evenodd" clip-rule="evenodd" d="M7.89 0.75C8.08875 0.75 8.25 0.91125 8.25 1.11075V3C8.25 3.19913 8.07375 3.375 7.875 3.375C7.67625 3.375 7.5 3.19913 7.5 3V1.5H6C5.80125 1.5 5.625 1.32413 5.625 1.125C5.625 0.925875 5.78625 0.75 5.985 0.75H7.89Z" fill="#404040"/>
</g>
<defs>
<clipPath id="clip0_25_358">
<rect width="9" height="9" fill="white"/>
</clipPath>
</defs>
</svg>
